<mxfile host="Electron" modified="2024-05-12T11:27:14.402Z" agent="Mozilla/5.0 (Macintosh; Intel Mac OS X 10_15_7) AppleWebKit/537.36 (KHTML, like Gecko) draw.io/22.0.3 Chrome/114.0.5735.289 Electron/25.8.4 Safari/537.36" etag="70oh0cGDI2kkAhomYmJf" version="22.0.3" type="device" pages="2">
  <diagram name="SVM" id="2kpuIiRDAIOAybYlatof">
    <mxGraphModel dx="1034" dy="574" grid="0" gridSize="10" guides="1" tooltips="1" connect="1" arrows="1" fold="1" page="0" pageScale="1" pageWidth="827" pageHeight="1169" math="0" shadow="0">
      <root>
        <mxCell id="0" />
        <mxCell id="1" parent="0" />
        <mxCell id="O8ywdLuge5WFncmqfs-D-1" value="" style="endArrow=classic;html=1;rounded=0;" parent="1" edge="1">
          <mxGeometry width="50" height="50" relative="1" as="geometry">
            <mxPoint x="240" y="260" as="sourcePoint" />
            <mxPoint x="320" y="240" as="targetPoint" />
          </mxGeometry>
        </mxCell>
        <mxCell id="O8ywdLuge5WFncmqfs-D-2" value="" style="endArrow=classic;html=1;rounded=0;" parent="1" edge="1">
          <mxGeometry width="50" height="50" relative="1" as="geometry">
            <mxPoint x="240" y="260" as="sourcePoint" />
            <mxPoint x="280" y="170" as="targetPoint" />
          </mxGeometry>
        </mxCell>
        <mxCell id="O8ywdLuge5WFncmqfs-D-3" value="B" style="text;html=1;strokeColor=none;fillColor=none;align=center;verticalAlign=middle;whiteSpace=wrap;rounded=0;" parent="1" vertex="1">
          <mxGeometry x="220" y="200" width="60" height="30" as="geometry" />
        </mxCell>
        <mxCell id="O8ywdLuge5WFncmqfs-D-4" value="A" style="text;html=1;strokeColor=none;fillColor=none;align=center;verticalAlign=middle;whiteSpace=wrap;rounded=0;" parent="1" vertex="1">
          <mxGeometry x="250" y="250" width="60" height="30" as="geometry" />
        </mxCell>
        <mxCell id="O8ywdLuge5WFncmqfs-D-5" value="" style="endArrow=classic;html=1;rounded=0;" parent="1" edge="1">
          <mxGeometry width="50" height="50" relative="1" as="geometry">
            <mxPoint x="320" y="240" as="sourcePoint" />
            <mxPoint x="360" y="150" as="targetPoint" />
          </mxGeometry>
        </mxCell>
        <mxCell id="O8ywdLuge5WFncmqfs-D-6" value="B" style="text;html=1;strokeColor=none;fillColor=none;align=center;verticalAlign=middle;whiteSpace=wrap;rounded=0;" parent="1" vertex="1">
          <mxGeometry x="330" y="190" width="60" height="30" as="geometry" />
        </mxCell>
        <mxCell id="O8ywdLuge5WFncmqfs-D-7" value="" style="endArrow=classic;html=1;rounded=0;strokeColor=#FF3333;" parent="1" edge="1">
          <mxGeometry width="50" height="50" relative="1" as="geometry">
            <mxPoint x="240" y="260" as="sourcePoint" />
            <mxPoint x="360" y="150" as="targetPoint" />
          </mxGeometry>
        </mxCell>
        <mxCell id="O8ywdLuge5WFncmqfs-D-8" value="C" style="text;html=1;strokeColor=none;fillColor=none;align=center;verticalAlign=middle;whiteSpace=wrap;rounded=0;fontColor=#FF3333;" parent="1" vertex="1">
          <mxGeometry x="280" y="160" width="60" height="30" as="geometry" />
        </mxCell>
        <mxCell id="O8ywdLuge5WFncmqfs-D-10" value="" style="endArrow=classic;html=1;rounded=0;" parent="1" edge="1">
          <mxGeometry width="50" height="50" relative="1" as="geometry">
            <mxPoint x="490" y="260" as="sourcePoint" />
            <mxPoint x="570" y="240" as="targetPoint" />
          </mxGeometry>
        </mxCell>
        <mxCell id="O8ywdLuge5WFncmqfs-D-11" value="" style="endArrow=classic;html=1;rounded=0;" parent="1" edge="1">
          <mxGeometry width="50" height="50" relative="1" as="geometry">
            <mxPoint x="490" y="260" as="sourcePoint" />
            <mxPoint x="530" y="170" as="targetPoint" />
          </mxGeometry>
        </mxCell>
        <mxCell id="O8ywdLuge5WFncmqfs-D-12" value="B" style="text;html=1;strokeColor=none;fillColor=none;align=center;verticalAlign=middle;whiteSpace=wrap;rounded=0;" parent="1" vertex="1">
          <mxGeometry x="470" y="200" width="60" height="30" as="geometry" />
        </mxCell>
        <mxCell id="O8ywdLuge5WFncmqfs-D-13" value="A" style="text;html=1;strokeColor=none;fillColor=none;align=center;verticalAlign=middle;whiteSpace=wrap;rounded=0;" parent="1" vertex="1">
          <mxGeometry x="500" y="250" width="60" height="30" as="geometry" />
        </mxCell>
        <mxCell id="O8ywdLuge5WFncmqfs-D-14" value="" style="endArrow=none;html=1;rounded=0;endFill=0;startArrow=classic;startFill=1;" parent="1" edge="1">
          <mxGeometry width="50" height="50" relative="1" as="geometry">
            <mxPoint x="530" y="330" as="sourcePoint" />
            <mxPoint x="570" y="240" as="targetPoint" />
          </mxGeometry>
        </mxCell>
        <mxCell id="O8ywdLuge5WFncmqfs-D-18" value="-B" style="text;html=1;strokeColor=none;fillColor=none;align=center;verticalAlign=middle;whiteSpace=wrap;rounded=0;" parent="1" vertex="1">
          <mxGeometry x="535" y="280" width="60" height="30" as="geometry" />
        </mxCell>
        <mxCell id="O8ywdLuge5WFncmqfs-D-19" value="" style="endArrow=classic;html=1;rounded=0;" parent="1" edge="1">
          <mxGeometry width="50" height="50" relative="1" as="geometry">
            <mxPoint x="570" y="240" as="sourcePoint" />
            <mxPoint x="610" y="150" as="targetPoint" />
          </mxGeometry>
        </mxCell>
        <mxCell id="O8ywdLuge5WFncmqfs-D-20" value="B" style="text;html=1;strokeColor=none;fillColor=none;align=center;verticalAlign=middle;whiteSpace=wrap;rounded=0;" parent="1" vertex="1">
          <mxGeometry x="590" y="190" width="60" height="30" as="geometry" />
        </mxCell>
        <mxCell id="O8ywdLuge5WFncmqfs-D-21" value="" style="endArrow=classic;html=1;rounded=0;fontColor=#FF3333;strokeColor=#FF3333;" parent="1" edge="1">
          <mxGeometry width="50" height="50" relative="1" as="geometry">
            <mxPoint x="530" y="170" as="sourcePoint" />
            <mxPoint x="570" y="240" as="targetPoint" />
          </mxGeometry>
        </mxCell>
        <mxCell id="O8ywdLuge5WFncmqfs-D-23" value="" style="endArrow=classic;html=1;rounded=0;strokeColor=#FF3333;" parent="1" edge="1">
          <mxGeometry width="50" height="50" relative="1" as="geometry">
            <mxPoint x="490" y="260" as="sourcePoint" />
            <mxPoint x="530" y="330" as="targetPoint" />
          </mxGeometry>
        </mxCell>
        <mxCell id="O8ywdLuge5WFncmqfs-D-24" value="C" style="text;html=1;strokeColor=none;fillColor=none;align=center;verticalAlign=middle;whiteSpace=wrap;rounded=0;fontColor=#FF3333;" parent="1" vertex="1">
          <mxGeometry x="470" y="280" width="60" height="30" as="geometry" />
        </mxCell>
        <mxCell id="O8ywdLuge5WFncmqfs-D-25" value="C" style="text;html=1;strokeColor=none;fillColor=none;align=center;verticalAlign=middle;whiteSpace=wrap;rounded=0;fontColor=#FF3333;" parent="1" vertex="1">
          <mxGeometry x="530" y="180" width="60" height="30" as="geometry" />
        </mxCell>
        <mxCell id="O8ywdLuge5WFncmqfs-D-26" value="C = A + B" style="text;html=1;strokeColor=none;fillColor=none;align=center;verticalAlign=middle;whiteSpace=wrap;rounded=0;fontStyle=1" parent="1" vertex="1">
          <mxGeometry x="276" y="112" width="60" height="30" as="geometry" />
        </mxCell>
        <mxCell id="O8ywdLuge5WFncmqfs-D-27" value="C = A - B" style="text;html=1;strokeColor=none;fillColor=none;align=center;verticalAlign=middle;whiteSpace=wrap;rounded=0;fontStyle=1" parent="1" vertex="1">
          <mxGeometry x="507" y="112" width="60" height="30" as="geometry" />
        </mxCell>
        <mxCell id="O8ywdLuge5WFncmqfs-D-28" value="" style="endArrow=classic;html=1;rounded=0;" parent="1" edge="1">
          <mxGeometry width="50" height="50" relative="1" as="geometry">
            <mxPoint x="213" y="524" as="sourcePoint" />
            <mxPoint x="293" y="504" as="targetPoint" />
          </mxGeometry>
        </mxCell>
        <mxCell id="O8ywdLuge5WFncmqfs-D-29" value="" style="endArrow=classic;html=1;rounded=0;" parent="1" edge="1">
          <mxGeometry width="50" height="50" relative="1" as="geometry">
            <mxPoint x="213" y="524" as="sourcePoint" />
            <mxPoint x="253" y="434" as="targetPoint" />
          </mxGeometry>
        </mxCell>
        <mxCell id="O8ywdLuge5WFncmqfs-D-30" value="B" style="text;html=1;strokeColor=none;fillColor=none;align=center;verticalAlign=middle;whiteSpace=wrap;rounded=0;" parent="1" vertex="1">
          <mxGeometry x="214" y="412" width="60" height="30" as="geometry" />
        </mxCell>
        <mxCell id="O8ywdLuge5WFncmqfs-D-31" value="A" style="text;html=1;strokeColor=none;fillColor=none;align=center;verticalAlign=middle;whiteSpace=wrap;rounded=0;" parent="1" vertex="1">
          <mxGeometry x="266" y="487" width="60" height="30" as="geometry" />
        </mxCell>
        <mxCell id="O8ywdLuge5WFncmqfs-D-36" value="" style="endArrow=none;dashed=1;html=1;dashPattern=1 3;strokeWidth=2;rounded=0;" parent="1" edge="1">
          <mxGeometry width="50" height="50" relative="1" as="geometry">
            <mxPoint x="270" y="507" as="sourcePoint" />
            <mxPoint x="252" y="438" as="targetPoint" />
          </mxGeometry>
        </mxCell>
        <mxCell id="O8ywdLuge5WFncmqfs-D-37" value="&lt;h1&gt;向量点乘&lt;/h1&gt;&lt;p&gt;向量表示 A • B = |A| * |B| * cos(θ)&lt;/p&gt;线性代数表示：A&lt;sup&gt;T &lt;/sup&gt;* B&lt;br&gt;" style="text;html=1;strokeColor=none;fillColor=none;spacing=5;spacingTop=-20;whiteSpace=wrap;overflow=hidden;rounded=0;" parent="1" vertex="1">
          <mxGeometry x="456" y="424" width="250" height="120" as="geometry" />
        </mxCell>
        <mxCell id="O8ywdLuge5WFncmqfs-D-40" value="" style="curved=1;endArrow=none;html=1;rounded=0;endFill=0;" parent="1" edge="1">
          <mxGeometry width="50" height="50" relative="1" as="geometry">
            <mxPoint x="225" y="521" as="sourcePoint" />
            <mxPoint x="219" y="510" as="targetPoint" />
            <Array as="points">
              <mxPoint x="226" y="515" />
            </Array>
          </mxGeometry>
        </mxCell>
        <mxCell id="O8ywdLuge5WFncmqfs-D-43" value="θ" style="text;html=1;strokeColor=none;fillColor=none;align=center;verticalAlign=middle;whiteSpace=wrap;rounded=0;" parent="1" vertex="1">
          <mxGeometry x="200" y="494" width="60" height="30" as="geometry" />
        </mxCell>
        <mxCell id="O8ywdLuge5WFncmqfs-D-44" value="" style="endArrow=classic;html=1;rounded=0;exitX=0.25;exitY=1;exitDx=0;exitDy=0;" parent="1" edge="1">
          <mxGeometry width="50" height="50" relative="1" as="geometry">
            <mxPoint x="212" y="524" as="sourcePoint" />
            <mxPoint x="429" y="524" as="targetPoint" />
          </mxGeometry>
        </mxCell>
        <mxCell id="O8ywdLuge5WFncmqfs-D-45" value="x1" style="text;html=1;strokeColor=none;fillColor=none;align=center;verticalAlign=middle;whiteSpace=wrap;rounded=0;" parent="1" vertex="1">
          <mxGeometry x="377" y="521" width="60" height="30" as="geometry" />
        </mxCell>
        <mxCell id="O8ywdLuge5WFncmqfs-D-46" value="" style="endArrow=classic;html=1;rounded=0;exitX=0.25;exitY=1;exitDx=0;exitDy=0;" parent="1" edge="1">
          <mxGeometry width="50" height="50" relative="1" as="geometry">
            <mxPoint x="214" y="525" as="sourcePoint" />
            <mxPoint x="211" y="333" as="targetPoint" />
          </mxGeometry>
        </mxCell>
        <mxCell id="O8ywdLuge5WFncmqfs-D-47" value="x2" style="text;html=1;strokeColor=none;fillColor=none;align=center;verticalAlign=middle;whiteSpace=wrap;rounded=0;" parent="1" vertex="1">
          <mxGeometry x="163" y="328" width="60" height="30" as="geometry" />
        </mxCell>
        <mxCell id="O8ywdLuge5WFncmqfs-D-49" value="" style="endArrow=classic;html=1;rounded=0;exitX=0.25;exitY=1;exitDx=0;exitDy=0;" parent="1" edge="1">
          <mxGeometry width="50" height="50" relative="1" as="geometry">
            <mxPoint x="229" y="847" as="sourcePoint" />
            <mxPoint x="231" y="650" as="targetPoint" />
          </mxGeometry>
        </mxCell>
        <mxCell id="O8ywdLuge5WFncmqfs-D-50" value="" style="endArrow=classic;html=1;rounded=0;exitX=0.25;exitY=1;exitDx=0;exitDy=0;" parent="1" edge="1">
          <mxGeometry width="50" height="50" relative="1" as="geometry">
            <mxPoint x="228" y="847" as="sourcePoint" />
            <mxPoint x="445" y="847" as="targetPoint" />
          </mxGeometry>
        </mxCell>
        <mxCell id="O8ywdLuge5WFncmqfs-D-51" value="" style="endArrow=none;html=1;rounded=0;" parent="1" target="O8ywdLuge5WFncmqfs-D-52" edge="1">
          <mxGeometry width="50" height="50" relative="1" as="geometry">
            <mxPoint x="176" y="799" as="sourcePoint" />
            <mxPoint x="446" y="723" as="targetPoint" />
          </mxGeometry>
        </mxCell>
        <mxCell id="O8ywdLuge5WFncmqfs-D-52" value="w&lt;sup&gt;T&lt;/sup&gt;*&amp;nbsp;x + b = 0" style="text;html=1;strokeColor=none;fillColor=none;align=center;verticalAlign=middle;whiteSpace=wrap;rounded=0;" parent="1" vertex="1">
          <mxGeometry x="470" y="699" width="113" height="30" as="geometry" />
        </mxCell>
        <mxCell id="O8ywdLuge5WFncmqfs-D-53" value="" style="ellipse;whiteSpace=wrap;html=1;aspect=fixed;fillColor=#FF3333;strokeColor=none;" parent="1" vertex="1">
          <mxGeometry x="373" y="638" width="6" height="6" as="geometry" />
        </mxCell>
        <mxCell id="O8ywdLuge5WFncmqfs-D-55" value="" style="endArrow=none;dashed=1;html=1;dashPattern=1 3;strokeWidth=2;rounded=0;entryX=0;entryY=0;entryDx=0;entryDy=0;" parent="1" edge="1">
          <mxGeometry width="50" height="50" relative="1" as="geometry">
            <mxPoint x="429" y="820" as="sourcePoint" />
            <mxPoint x="375.87867965644045" y="640.8786796564405" as="targetPoint" />
          </mxGeometry>
        </mxCell>
        <mxCell id="O8ywdLuge5WFncmqfs-D-56" value="" style="ellipse;whiteSpace=wrap;html=1;aspect=fixed;fillColor=#FF3333;strokeColor=none;" parent="1" vertex="1">
          <mxGeometry x="403" y="741" width="6" height="6" as="geometry" />
        </mxCell>
        <mxCell id="O8ywdLuge5WFncmqfs-D-57" value="A" style="text;html=1;strokeColor=none;fillColor=none;align=center;verticalAlign=middle;whiteSpace=wrap;rounded=0;" parent="1" vertex="1">
          <mxGeometry x="338" y="611" width="60" height="30" as="geometry" />
        </mxCell>
        <mxCell id="O8ywdLuge5WFncmqfs-D-58" value="B" style="text;html=1;strokeColor=none;fillColor=none;align=center;verticalAlign=middle;whiteSpace=wrap;rounded=0;" parent="1" vertex="1">
          <mxGeometry x="396" y="735" width="60" height="30" as="geometry" />
        </mxCell>
        <mxCell id="O8ywdLuge5WFncmqfs-D-59" value="" style="endArrow=classic;html=1;rounded=0;" parent="1" edge="1">
          <mxGeometry width="50" height="50" relative="1" as="geometry">
            <mxPoint x="192" y="1102" as="sourcePoint" />
            <mxPoint x="192" y="872" as="targetPoint" />
          </mxGeometry>
        </mxCell>
        <mxCell id="O8ywdLuge5WFncmqfs-D-60" value="" style="endArrow=classic;html=1;rounded=0;exitX=0.25;exitY=1;exitDx=0;exitDy=0;" parent="1" edge="1">
          <mxGeometry width="50" height="50" relative="1" as="geometry">
            <mxPoint x="190" y="1101" as="sourcePoint" />
            <mxPoint x="407" y="1101" as="targetPoint" />
          </mxGeometry>
        </mxCell>
        <mxCell id="O8ywdLuge5WFncmqfs-D-62" value="" style="ellipse;whiteSpace=wrap;html=1;aspect=fixed;" parent="1" vertex="1">
          <mxGeometry x="362" y="961" width="9" height="9" as="geometry" />
        </mxCell>
        <mxCell id="O8ywdLuge5WFncmqfs-D-63" value="" style="ellipse;whiteSpace=wrap;html=1;aspect=fixed;" parent="1" vertex="1">
          <mxGeometry x="358" y="983" width="9" height="9" as="geometry" />
        </mxCell>
        <mxCell id="O8ywdLuge5WFncmqfs-D-64" value="" style="ellipse;whiteSpace=wrap;html=1;aspect=fixed;" parent="1" vertex="1">
          <mxGeometry x="368" y="980" width="9" height="9" as="geometry" />
        </mxCell>
        <mxCell id="O8ywdLuge5WFncmqfs-D-65" value="" style="ellipse;whiteSpace=wrap;html=1;aspect=fixed;" parent="1" vertex="1">
          <mxGeometry x="378" y="990" width="9" height="9" as="geometry" />
        </mxCell>
        <mxCell id="O8ywdLuge5WFncmqfs-D-66" value="" style="ellipse;whiteSpace=wrap;html=1;aspect=fixed;" parent="1" vertex="1">
          <mxGeometry x="379" y="974" width="9" height="9" as="geometry" />
        </mxCell>
        <mxCell id="O8ywdLuge5WFncmqfs-D-67" value="" style="ellipse;whiteSpace=wrap;html=1;aspect=fixed;" parent="1" vertex="1">
          <mxGeometry x="372" y="971" width="9" height="9" as="geometry" />
        </mxCell>
        <mxCell id="O8ywdLuge5WFncmqfs-D-68" value="" style="ellipse;whiteSpace=wrap;html=1;aspect=fixed;" parent="1" vertex="1">
          <mxGeometry x="357" y="971" width="9" height="9" as="geometry" />
        </mxCell>
        <mxCell id="O8ywdLuge5WFncmqfs-D-69" value="" style="triangle;whiteSpace=wrap;html=1;rotation=-30;" parent="1" vertex="1">
          <mxGeometry x="274" y="997" width="9" height="9" as="geometry" />
        </mxCell>
        <mxCell id="O8ywdLuge5WFncmqfs-D-70" value="" style="triangle;whiteSpace=wrap;html=1;rotation=-30;" parent="1" vertex="1">
          <mxGeometry x="284" y="1002" width="9" height="9" as="geometry" />
        </mxCell>
        <mxCell id="O8ywdLuge5WFncmqfs-D-71" value="" style="triangle;whiteSpace=wrap;html=1;rotation=-30;" parent="1" vertex="1">
          <mxGeometry x="294" y="990" width="9" height="9" as="geometry" />
        </mxCell>
        <mxCell id="O8ywdLuge5WFncmqfs-D-72" value="" style="triangle;whiteSpace=wrap;html=1;rotation=-30;" parent="1" vertex="1">
          <mxGeometry x="310" y="1004" width="9" height="9" as="geometry" />
        </mxCell>
        <mxCell id="O8ywdLuge5WFncmqfs-D-73" value="" style="triangle;whiteSpace=wrap;html=1;rotation=-30;" parent="1" vertex="1">
          <mxGeometry x="314" y="1032" width="9" height="9" as="geometry" />
        </mxCell>
        <mxCell id="O8ywdLuge5WFncmqfs-D-74" value="" style="triangle;whiteSpace=wrap;html=1;rotation=-30;" parent="1" vertex="1">
          <mxGeometry x="284" y="1013" width="9" height="9" as="geometry" />
        </mxCell>
        <mxCell id="O8ywdLuge5WFncmqfs-D-75" value="" style="triangle;whiteSpace=wrap;html=1;rotation=-30;" parent="1" vertex="1">
          <mxGeometry x="294" y="1021" width="9" height="9" as="geometry" />
        </mxCell>
        <mxCell id="O8ywdLuge5WFncmqfs-D-76" value="" style="triangle;whiteSpace=wrap;html=1;rotation=-30;" parent="1" vertex="1">
          <mxGeometry x="304" y="1024" width="9" height="9" as="geometry" />
        </mxCell>
        <mxCell id="O8ywdLuge5WFncmqfs-D-77" value="" style="endArrow=none;html=1;rounded=0;" parent="1" edge="1">
          <mxGeometry width="50" height="50" relative="1" as="geometry">
            <mxPoint x="399" y="1071" as="sourcePoint" />
            <mxPoint x="239" y="941" as="targetPoint" />
          </mxGeometry>
        </mxCell>
        <mxCell id="O8ywdLuge5WFncmqfs-D-78" value="" style="endArrow=none;html=1;rounded=0;" parent="1" edge="1">
          <mxGeometry width="50" height="50" relative="1" as="geometry">
            <mxPoint x="416" y="1038" as="sourcePoint" />
            <mxPoint x="256" y="908" as="targetPoint" />
          </mxGeometry>
        </mxCell>
        <mxCell id="O8ywdLuge5WFncmqfs-D-79" value="" style="endArrow=none;html=1;rounded=0;dashed=1;" parent="1" edge="1">
          <mxGeometry width="50" height="50" relative="1" as="geometry">
            <mxPoint x="406" y="1054" as="sourcePoint" />
            <mxPoint x="246" y="924" as="targetPoint" />
          </mxGeometry>
        </mxCell>
        <mxCell id="O8ywdLuge5WFncmqfs-D-80" value="Margin" style="text;html=1;strokeColor=none;fillColor=none;align=center;verticalAlign=middle;whiteSpace=wrap;rounded=0;rotation=-60;" parent="1" vertex="1">
          <mxGeometry x="191" y="885.0000000000001" width="60" height="30" as="geometry" />
        </mxCell>
        <mxCell id="O8ywdLuge5WFncmqfs-D-81" value="" style="shape=curlyBracket;whiteSpace=wrap;html=1;rounded=1;flipH=1;labelPosition=right;verticalLabelPosition=middle;align=left;verticalAlign=middle;rotation=-150;" parent="1" vertex="1">
          <mxGeometry x="225" y="892" width="20" height="45.74" as="geometry" />
        </mxCell>
        <mxCell id="O8ywdLuge5WFncmqfs-D-82" value="w&lt;sup&gt;T&lt;/sup&gt;*&amp;nbsp;B + b + c = 0&lt;br&gt;w&lt;sup&gt;T&lt;/sup&gt;*&amp;nbsp;B + b = 0&lt;br&gt;w&lt;sup&gt;T&lt;/sup&gt;*&amp;nbsp;B + b - c = 0" style="text;html=1;strokeColor=none;fillColor=none;align=left;verticalAlign=middle;whiteSpace=wrap;rounded=0;" parent="1" vertex="1">
          <mxGeometry x="416" y="1176" width="107" height="59" as="geometry" />
        </mxCell>
        <mxCell id="O8ywdLuge5WFncmqfs-D-83" value="w&lt;sup&gt;T&lt;/sup&gt;*&amp;nbsp;B + b&amp;nbsp; = -c&lt;br&gt;w&lt;sup&gt;T&lt;/sup&gt;*&amp;nbsp;B + b = 0&lt;br&gt;w&lt;sup&gt;T&lt;/sup&gt;*&amp;nbsp;B + b&amp;nbsp; = c" style="text;html=1;strokeColor=none;fillColor=none;align=left;verticalAlign=middle;whiteSpace=wrap;rounded=0;" parent="1" vertex="1">
          <mxGeometry x="546" y="1176" width="107" height="59" as="geometry" />
        </mxCell>
        <mxCell id="O8ywdLuge5WFncmqfs-D-85" value="w&lt;sup&gt;T&lt;/sup&gt;*&amp;nbsp;B/-c + b/-c&amp;nbsp; = 1&lt;br&gt;w&lt;sup&gt;T&lt;/sup&gt;*&amp;nbsp;B/-c + b/-c = 0&lt;br&gt;w&lt;sup&gt;T&lt;/sup&gt;*&amp;nbsp;B/-c + b/-c&amp;nbsp; = -1" style="text;html=1;strokeColor=none;fillColor=none;align=left;verticalAlign=middle;whiteSpace=wrap;rounded=0;" parent="1" vertex="1">
          <mxGeometry x="676" y="1176" width="125" height="59" as="geometry" />
        </mxCell>
        <mxCell id="O8ywdLuge5WFncmqfs-D-86" value="w&lt;sup&gt;T&lt;/sup&gt;&amp;nbsp;=&amp;nbsp;w&lt;sup&gt;T&lt;/sup&gt;/-c&amp;nbsp; ; &lt;br&gt;c = b/-c" style="text;html=1;strokeColor=none;fillColor=none;align=left;verticalAlign=middle;whiteSpace=wrap;rounded=0;" parent="1" vertex="1">
          <mxGeometry x="788" y="1153" width="70" height="59" as="geometry" />
        </mxCell>
        <mxCell id="O8ywdLuge5WFncmqfs-D-87" value="w&lt;sup&gt;T&lt;/sup&gt;*&amp;nbsp;B + c&amp;nbsp; = 1&lt;br&gt;w&lt;sup&gt;T&lt;/sup&gt;*&amp;nbsp;B + c = 0&lt;br&gt;w&lt;sup&gt;T&lt;/sup&gt;*&amp;nbsp;B + c&amp;nbsp; = -1" style="text;html=1;strokeColor=none;fillColor=none;align=left;verticalAlign=middle;whiteSpace=wrap;rounded=0;" parent="1" vertex="1">
          <mxGeometry x="849" y="1176" width="150" height="59" as="geometry" />
        </mxCell>
        <mxCell id="O8ywdLuge5WFncmqfs-D-88" value="" style="endArrow=classic;html=1;rounded=0;strokeWidth=3;" parent="1" edge="1">
          <mxGeometry width="50" height="50" relative="1" as="geometry">
            <mxPoint x="514" y="1206" as="sourcePoint" />
            <mxPoint x="538" y="1206" as="targetPoint" />
          </mxGeometry>
        </mxCell>
        <mxCell id="O8ywdLuge5WFncmqfs-D-91" value="" style="endArrow=classic;html=1;rounded=0;strokeWidth=3;" parent="1" edge="1">
          <mxGeometry width="50" height="50" relative="1" as="geometry">
            <mxPoint x="642" y="1208" as="sourcePoint" />
            <mxPoint x="666" y="1208" as="targetPoint" />
          </mxGeometry>
        </mxCell>
        <mxCell id="O8ywdLuge5WFncmqfs-D-92" value="" style="endArrow=classic;html=1;rounded=0;strokeWidth=3;" parent="1" source="O8ywdLuge5WFncmqfs-D-85" target="O8ywdLuge5WFncmqfs-D-87" edge="1">
          <mxGeometry width="50" height="50" relative="1" as="geometry">
            <mxPoint x="647" y="1305" as="sourcePoint" />
            <mxPoint x="671" y="1205" as="targetPoint" />
          </mxGeometry>
        </mxCell>
        <mxCell id="O8ywdLuge5WFncmqfs-D-93" value="w&lt;sup&gt;T&lt;/sup&gt;*&amp;nbsp;B + c&amp;nbsp; = 1 正超平面&lt;br&gt;w&lt;sup&gt;T&lt;/sup&gt;*&amp;nbsp;B + c = 0 决策超平面&lt;br&gt;w&lt;sup&gt;T&lt;/sup&gt;*&amp;nbsp;B + c&amp;nbsp; = -1 负超平面" style="text;html=1;strokeColor=none;fillColor=none;align=left;verticalAlign=middle;whiteSpace=wrap;rounded=0;" parent="1" vertex="1">
          <mxGeometry x="419" y="1032" width="150" height="59" as="geometry" />
        </mxCell>
      </root>
    </mxGraphModel>
  </diagram>
  <diagram id="d2g9QP0FM5wlhKePNkbL" name="backward">
    <mxGraphModel dx="794" dy="574" grid="0" gridSize="10" guides="1" tooltips="1" connect="1" arrows="1" fold="1" page="0" pageScale="1" pageWidth="827" pageHeight="1169" math="0" shadow="0">
      <root>
        <mxCell id="0" />
        <mxCell id="1" parent="0" />
        <mxCell id="MJ2nmk1r0TMUCO_cp70J-1" value="&lt;h1&gt;&lt;br&gt;&lt;/h1&gt;&lt;div&gt;x11 = [1 2 3 4]&lt;/div&gt;&lt;div&gt;x12 = [1;1;1;1]&lt;/div&gt;&lt;div&gt;&lt;br&gt;&lt;/div&gt;" style="text;html=1;strokeColor=none;fillColor=none;spacing=5;spacingTop=-20;whiteSpace=wrap;overflow=hidden;rounded=0;" vertex="1" parent="1">
          <mxGeometry x="182" y="41" width="190" height="101" as="geometry" />
        </mxCell>
        <mxCell id="MJ2nmk1r0TMUCO_cp70J-2" value="[1 2 3 4]" style="rounded=1;whiteSpace=wrap;html=1;" vertex="1" parent="1">
          <mxGeometry x="144" y="193" width="120" height="60" as="geometry" />
        </mxCell>
        <mxCell id="MJ2nmk1r0TMUCO_cp70J-3" value="" style="rounded=1;whiteSpace=wrap;html=1;" vertex="1" parent="1">
          <mxGeometry x="144" y="308" width="120" height="75" as="geometry" />
        </mxCell>
        <mxCell id="MJ2nmk1r0TMUCO_cp70J-4" value="[1&lt;br&gt;&amp;nbsp;1&lt;br&gt;&amp;nbsp;1&lt;br&gt;&amp;nbsp; 1]" style="text;html=1;strokeColor=none;fillColor=none;align=center;verticalAlign=middle;whiteSpace=wrap;rounded=0;" vertex="1" parent="1">
          <mxGeometry x="171" y="311" width="60" height="72" as="geometry" />
        </mxCell>
        <mxCell id="MJ2nmk1r0TMUCO_cp70J-5" value="x11" style="text;html=1;strokeColor=none;fillColor=none;align=center;verticalAlign=middle;whiteSpace=wrap;rounded=0;" vertex="1" parent="1">
          <mxGeometry x="171" y="253" width="60" height="30" as="geometry" />
        </mxCell>
        <mxCell id="MJ2nmk1r0TMUCO_cp70J-6" value="x12" style="text;html=1;strokeColor=none;fillColor=none;align=center;verticalAlign=middle;whiteSpace=wrap;rounded=0;" vertex="1" parent="1">
          <mxGeometry x="171" y="390" width="60" height="30" as="geometry" />
        </mxCell>
        <mxCell id="MJ2nmk1r0TMUCO_cp70J-7" value="6" style="rounded=1;whiteSpace=wrap;html=1;" vertex="1" parent="1">
          <mxGeometry x="372" y="251" width="120" height="60" as="geometry" />
        </mxCell>
        <mxCell id="MJ2nmk1r0TMUCO_cp70J-8" value="" style="endArrow=classic;html=1;rounded=0;" edge="1" parent="1" source="MJ2nmk1r0TMUCO_cp70J-2" target="MJ2nmk1r0TMUCO_cp70J-7">
          <mxGeometry width="50" height="50" relative="1" as="geometry">
            <mxPoint x="476" y="339" as="sourcePoint" />
            <mxPoint x="526" y="289" as="targetPoint" />
          </mxGeometry>
        </mxCell>
        <mxCell id="MJ2nmk1r0TMUCO_cp70J-9" value="" style="endArrow=classic;html=1;rounded=0;" edge="1" parent="1" source="MJ2nmk1r0TMUCO_cp70J-3" target="MJ2nmk1r0TMUCO_cp70J-7">
          <mxGeometry width="50" height="50" relative="1" as="geometry">
            <mxPoint x="476" y="339" as="sourcePoint" />
            <mxPoint x="526" y="289" as="targetPoint" />
          </mxGeometry>
        </mxCell>
        <mxCell id="MJ2nmk1r0TMUCO_cp70J-10" value="X" style="text;html=1;strokeColor=none;fillColor=none;align=center;verticalAlign=middle;whiteSpace=wrap;rounded=0;" vertex="1" parent="1">
          <mxGeometry x="310" y="266" width="60" height="30" as="geometry" />
        </mxCell>
        <mxCell id="MJ2nmk1r0TMUCO_cp70J-11" value="x22" style="text;html=1;strokeColor=none;fillColor=none;align=center;verticalAlign=middle;whiteSpace=wrap;rounded=0;" vertex="1" parent="1">
          <mxGeometry x="402" y="585" width="60" height="30" as="geometry" />
        </mxCell>
        <mxCell id="MJ2nmk1r0TMUCO_cp70J-12" value="[1 2 &lt;br&gt;3 4]" style="rounded=1;whiteSpace=wrap;html=1;" vertex="1" parent="1">
          <mxGeometry x="141" y="462" width="120" height="60" as="geometry" />
        </mxCell>
        <mxCell id="MJ2nmk1r0TMUCO_cp70J-13" value="x13" style="text;html=1;strokeColor=none;fillColor=none;align=center;verticalAlign=middle;whiteSpace=wrap;rounded=0;" vertex="1" parent="1">
          <mxGeometry x="171" y="524" width="60" height="30" as="geometry" />
        </mxCell>
        <mxCell id="MJ2nmk1r0TMUCO_cp70J-14" value="[1 2 &lt;br&gt;3 4]" style="rounded=1;whiteSpace=wrap;html=1;" vertex="1" parent="1">
          <mxGeometry x="144" y="577" width="120" height="60" as="geometry" />
        </mxCell>
        <mxCell id="MJ2nmk1r0TMUCO_cp70J-15" value="x14" style="text;html=1;strokeColor=none;fillColor=none;align=center;verticalAlign=middle;whiteSpace=wrap;rounded=0;" vertex="1" parent="1">
          <mxGeometry x="171" y="642" width="60" height="30" as="geometry" />
        </mxCell>
        <mxCell id="MJ2nmk1r0TMUCO_cp70J-16" value="" style="endArrow=classic;html=1;rounded=0;" edge="1" parent="1" source="MJ2nmk1r0TMUCO_cp70J-12" target="MJ2nmk1r0TMUCO_cp70J-17">
          <mxGeometry width="50" height="50" relative="1" as="geometry">
            <mxPoint x="476" y="496" as="sourcePoint" />
            <mxPoint x="526" y="446" as="targetPoint" />
          </mxGeometry>
        </mxCell>
        <mxCell id="MJ2nmk1r0TMUCO_cp70J-17" value="[7 10&lt;br&gt;15 22]" style="rounded=1;whiteSpace=wrap;html=1;" vertex="1" parent="1">
          <mxGeometry x="372" y="522" width="120" height="60" as="geometry" />
        </mxCell>
        <mxCell id="MJ2nmk1r0TMUCO_cp70J-18" value="" style="endArrow=classic;html=1;rounded=0;" edge="1" parent="1" source="MJ2nmk1r0TMUCO_cp70J-14" target="MJ2nmk1r0TMUCO_cp70J-17">
          <mxGeometry width="50" height="50" relative="1" as="geometry">
            <mxPoint x="476" y="597" as="sourcePoint" />
            <mxPoint x="526" y="547" as="targetPoint" />
          </mxGeometry>
        </mxCell>
        <mxCell id="MJ2nmk1r0TMUCO_cp70J-19" value="X" style="text;html=1;strokeColor=none;fillColor=none;align=center;verticalAlign=middle;whiteSpace=wrap;rounded=0;" vertex="1" parent="1">
          <mxGeometry x="310" y="537" width="60" height="30" as="geometry" />
        </mxCell>
        <mxCell id="MJ2nmk1r0TMUCO_cp70J-20" value="[42 60&lt;br&gt;90 132]" style="rounded=1;whiteSpace=wrap;html=1;" vertex="1" parent="1">
          <mxGeometry x="587" y="405" width="120" height="60" as="geometry" />
        </mxCell>
        <mxCell id="MJ2nmk1r0TMUCO_cp70J-21" value="x21" style="text;html=1;strokeColor=none;fillColor=none;align=center;verticalAlign=middle;whiteSpace=wrap;rounded=0;" vertex="1" parent="1">
          <mxGeometry x="402" y="319" width="60" height="30" as="geometry" />
        </mxCell>
        <mxCell id="MJ2nmk1r0TMUCO_cp70J-22" value="" style="endArrow=classic;html=1;rounded=0;entryX=0;entryY=0.5;entryDx=0;entryDy=0;" edge="1" parent="1" source="MJ2nmk1r0TMUCO_cp70J-7" target="MJ2nmk1r0TMUCO_cp70J-20">
          <mxGeometry width="50" height="50" relative="1" as="geometry">
            <mxPoint x="573" y="486" as="sourcePoint" />
            <mxPoint x="623" y="436" as="targetPoint" />
          </mxGeometry>
        </mxCell>
        <mxCell id="MJ2nmk1r0TMUCO_cp70J-23" value="" style="endArrow=classic;html=1;rounded=0;entryX=0;entryY=0.5;entryDx=0;entryDy=0;" edge="1" parent="1" source="MJ2nmk1r0TMUCO_cp70J-17" target="MJ2nmk1r0TMUCO_cp70J-20">
          <mxGeometry width="50" height="50" relative="1" as="geometry">
            <mxPoint x="573" y="486" as="sourcePoint" />
            <mxPoint x="623" y="436" as="targetPoint" />
          </mxGeometry>
        </mxCell>
        <mxCell id="MJ2nmk1r0TMUCO_cp70J-24" value="X" style="text;html=1;strokeColor=none;fillColor=none;align=center;verticalAlign=middle;whiteSpace=wrap;rounded=0;" vertex="1" parent="1">
          <mxGeometry x="520" y="420" width="60" height="30" as="geometry" />
        </mxCell>
        <mxCell id="MJ2nmk1r0TMUCO_cp70J-25" value="x3" style="text;html=1;strokeColor=none;fillColor=none;align=center;verticalAlign=middle;whiteSpace=wrap;rounded=0;" vertex="1" parent="1">
          <mxGeometry x="622" y="473" width="60" height="30" as="geometry" />
        </mxCell>
        <mxCell id="MJ2nmk1r0TMUCO_cp70J-26" value="324" style="rounded=1;whiteSpace=wrap;html=1;" vertex="1" parent="1">
          <mxGeometry x="773" y="405" width="120" height="60" as="geometry" />
        </mxCell>
        <mxCell id="MJ2nmk1r0TMUCO_cp70J-27" value="y(cost)" style="text;html=1;strokeColor=none;fillColor=none;align=center;verticalAlign=middle;whiteSpace=wrap;rounded=0;" vertex="1" parent="1">
          <mxGeometry x="803" y="473" width="60" height="30" as="geometry" />
        </mxCell>
        <mxCell id="MJ2nmk1r0TMUCO_cp70J-28" value="" style="endArrow=classic;html=1;rounded=0;" edge="1" parent="1" source="MJ2nmk1r0TMUCO_cp70J-20" target="MJ2nmk1r0TMUCO_cp70J-26">
          <mxGeometry width="50" height="50" relative="1" as="geometry">
            <mxPoint x="573" y="583" as="sourcePoint" />
            <mxPoint x="623" y="533" as="targetPoint" />
          </mxGeometry>
        </mxCell>
        <mxCell id="MJ2nmk1r0TMUCO_cp70J-29" value="Sum()" style="text;html=1;strokeColor=none;fillColor=none;align=center;verticalAlign=middle;whiteSpace=wrap;rounded=0;" vertex="1" parent="1">
          <mxGeometry x="713" y="405" width="60" height="30" as="geometry" />
        </mxCell>
        <mxCell id="MJ2nmk1r0TMUCO_cp70J-41" value="42&lt;br&gt;60&lt;br&gt;90&lt;br&gt;132" style="shape=partialRectangle;whiteSpace=wrap;html=1;top=0;bottom=0;fillColor=none;" vertex="1" parent="1">
          <mxGeometry x="600" y="308" width="40" height="60" as="geometry" />
        </mxCell>
        <mxCell id="MJ2nmk1r0TMUCO_cp70J-43" value="y = x3_1 + x3_2 + x3_3 + x3_4" style="text;html=1;strokeColor=none;fillColor=none;align=center;verticalAlign=middle;whiteSpace=wrap;rounded=0;" vertex="1" parent="1">
          <mxGeometry x="595" y="266" width="194" height="30" as="geometry" />
        </mxCell>
        <mxCell id="MJ2nmk1r0TMUCO_cp70J-44" value="1&lt;br&gt;1&lt;br&gt;1&lt;br&gt;1" style="shape=partialRectangle;whiteSpace=wrap;html=1;top=0;bottom=0;fillColor=none;" vertex="1" parent="1">
          <mxGeometry x="688" y="308" width="40" height="60" as="geometry" />
        </mxCell>
        <mxCell id="MJ2nmk1r0TMUCO_cp70J-45" value="∂y/∂x3" style="text;html=1;strokeColor=none;fillColor=none;align=center;verticalAlign=middle;whiteSpace=wrap;rounded=0;" vertex="1" parent="1">
          <mxGeometry x="682" y="375" width="60" height="30" as="geometry" />
        </mxCell>
        <mxCell id="MJ2nmk1r0TMUCO_cp70J-46" value="x3" style="text;html=1;strokeColor=none;fillColor=none;align=center;verticalAlign=middle;whiteSpace=wrap;rounded=0;" vertex="1" parent="1">
          <mxGeometry x="597" y="371" width="60" height="30" as="geometry" />
        </mxCell>
        <mxCell id="MJ2nmk1r0TMUCO_cp70J-48" value="" style="endArrow=classic;html=1;rounded=0;dashed=1;" edge="1" parent="1" source="MJ2nmk1r0TMUCO_cp70J-7">
          <mxGeometry width="50" height="50" relative="1" as="geometry">
            <mxPoint x="525" y="231" as="sourcePoint" />
            <mxPoint x="604" y="315" as="targetPoint" />
          </mxGeometry>
        </mxCell>
        <mxCell id="MJ2nmk1r0TMUCO_cp70J-49" value="" style="endArrow=classic;html=1;rounded=0;dashed=1;entryX=-0.125;entryY=0.4;entryDx=0;entryDy=0;entryPerimeter=0;" edge="1" parent="1" source="MJ2nmk1r0TMUCO_cp70J-7" target="MJ2nmk1r0TMUCO_cp70J-41">
          <mxGeometry width="50" height="50" relative="1" as="geometry">
            <mxPoint x="502" y="303" as="sourcePoint" />
            <mxPoint x="614" y="325" as="targetPoint" />
          </mxGeometry>
        </mxCell>
        <mxCell id="MJ2nmk1r0TMUCO_cp70J-50" value="" style="endArrow=classic;html=1;rounded=0;dashed=1;entryX=-0.15;entryY=0.6;entryDx=0;entryDy=0;entryPerimeter=0;" edge="1" parent="1" source="MJ2nmk1r0TMUCO_cp70J-7" target="MJ2nmk1r0TMUCO_cp70J-41">
          <mxGeometry width="50" height="50" relative="1" as="geometry">
            <mxPoint x="502" y="306" as="sourcePoint" />
            <mxPoint x="624" y="335" as="targetPoint" />
          </mxGeometry>
        </mxCell>
        <mxCell id="MJ2nmk1r0TMUCO_cp70J-51" value="" style="endArrow=classic;html=1;rounded=0;dashed=1;exitX=1;exitY=1;exitDx=0;exitDy=0;" edge="1" parent="1" source="MJ2nmk1r0TMUCO_cp70J-7">
          <mxGeometry width="50" height="50" relative="1" as="geometry">
            <mxPoint x="502" y="314" as="sourcePoint" />
            <mxPoint x="597" y="354" as="targetPoint" />
          </mxGeometry>
        </mxCell>
        <mxCell id="MJ2nmk1r0TMUCO_cp70J-52" value="y = f31(x3_1) + f32(x3_2) + f33(x3_3) + f34(x3_4)&lt;br&gt;∂y/∂x = ∂f31(x3_1)/∂x + ∂f32(x3_2)/∂x + ∂f33(x3_3)/∂x + f34(x3_4)/∂x&lt;br&gt;&amp;nbsp; &amp;nbsp; &amp;nbsp; &amp;nbsp; &amp;nbsp;=&amp;nbsp;&lt;br&gt;&amp;nbsp;" style="text;html=1;strokeColor=none;fillColor=none;align=left;verticalAlign=middle;whiteSpace=wrap;rounded=0;" vertex="1" parent="1">
          <mxGeometry x="377" y="156" width="420" height="41" as="geometry" />
        </mxCell>
      </root>
    </mxGraphModel>
  </diagram>
</mxfile>
